<svg id="Layer_1" height="512" viewBox="0 0 64 64" width="512" xmlns="http://www.w3.org/2000/svg" data-name="Layer 1"><path d="m1 1h62v52h-62z" fill="#23a8cc"/><path d="m8 6h48v39h-48z" fill="#1d7d9f"/><g fill="#9edfe0"><path d="m10 50h-1a1 1 0 0 1 0-2h1a1 1 0 0 1 0 2z"/><path d="m14 50h-1a1 1 0 0 1 0-2h1a1 1 0 0 1 0 2z"/><path d="m6 50h-1a1 1 0 0 1 0-2h1a1 1 0 0 1 0 2z"/><path d="m10 50h-1a1 1 0 0 1 0-2h1a1 1 0 0 1 0 2z"/><path d="m14 50h-1a1 1 0 0 1 0-2h1a1 1 0 0 1 0 2z"/><path d="m6 50h-1a1 1 0 0 1 0-2h1a1 1 0 0 1 0 2z"/><path d="m48 11h-1a1 1 0 0 1 0-2h1a1 1 0 0 1 0 2z"/><path d="m52 11h-1a1 1 0 0 1 0-2h1a1 1 0 0 1 0 2z"/><path d="m44 11h-1a1 1 0 0 1 0-2h1a1 1 0 0 1 0 2z"/></g><path d="m10 53h6v10h-6z" fill="#6a951f"/><path d="m48 53h6v10h-6z" fill="#6a951f"/><path d="m10 17h-4a1 1 0 0 1 0-2h4a1 1 0 0 1 0 2z" fill="#fcc325"/><path d="m10 37h-4a1 1 0 0 1 0-2h4a1 1 0 0 1 0 2z" fill="#fcc325"/><path d="m43 26a11.252 11.252 0 0 1 -11 11 11.252 11.252 0 0 1 -11-11 11.252 11.252 0 0 1 11-11 11.252 11.252 0 0 1 11 11z" fill="#fcc325"/><path d="m46 27h-14a1 1 0 0 1 0-2h14a1 1 0 0 1 0 2z" fill="#6a951f"/><g opacity=".2"><path d="m1 12.687c4.729 3.133 26.258 16.057 62 18.194v-29.881h-62z" fill="#fff"/></g><g opacity=".2"><path d="m10 53h6v5h-6z"/></g><g opacity=".2"><path d="m48 53h6v5h-6z"/></g></svg>