<svg height="480pt" viewBox="0 0 480 480" width="480pt" xmlns="http://www.w3.org/2000/svg"><path d="m472 240c0 128.128906-103.871094 232-232 232s-232-103.871094-232-232 103.871094-232 232-232 232 103.871094 232 232zm0 0" fill="#2ab793"/><path d="m264 184h-48c-44 0-80 36-80 80v128c0 8.800781 7.199219 16 16 16h176c8.800781 0 16-7.199219 16-16v-128c0-44-36-80-80-80zm0 0" fill="#e9e9e9"/><path d="m296 96c0 30.929688-25.070312 56-56 56s-56-25.070312-56-56 25.070312-56 56-56 56 25.070312 56 56zm0 0" fill="#e9e9e9"/><path d="m296 96c0-31.199219-24.800781-56-56-56v112c31.199219 0 56-24.800781 56-56zm0 0" fill="#d6d7d8"/><path d="m264 184h-24v224h88c8.800781 0 16-7.199219 16-16v-128c0-44-36-80-80-80zm0 0" fill="#d6d7d8"/><path d="m240 0c-132.800781 0-240 107.199219-240 240s107.199219 240 240 240 240-107.199219 240-240-107.199219-240-240-240zm0 464c-124 0-224-100-224-224s100-224 224-224 224 100 224 224-100 224-224 224zm0 0"/><path d="m264 176v16c40 0 72 32 72 72v128c0 4.800781-3.199219 8-8 8h-176c-4.800781 0-8-3.199219-8-8v-128c0-40 32-72 72-72v-16c-48.800781 0-88 39.199219-88 88v128c0 13.601562 10.398438 24 24 24h176c13.601562 0 24-10.398438 24-24v-128c0-48.800781-39.199219-88-88-88zm0 0"/><path d="m240 160c35.199219 0 64-28.800781 64-64s-28.800781-64-64-64-64 28.800781-64 64 28.800781 64 64 64zm0-112c26.398438 0 48 21.601562 48 48s-21.601562 48-48 48-48-21.601562-48-48 21.601562-48 48-48zm0 0"/></svg>