<svg id="_x33_0" enable-background="new 0 0 64 64" height="512" viewBox="0 0 64 64" width="512" xmlns="http://www.w3.org/2000/svg"><g><g><path d="m26 2v6 5l-.02.14c.007.001.013.003.02.004v27.712c-.007.001-.013.003-.02.004l.02.14v14 6l2-2 2 3 2-3 2 3 2-3 2 3 2-3 2 3 2-3 2 3 2-3 2 3 2-3 2 3 2-3 2 2v-6-4-16-27-6z" fill="#e6e9ed"/><path d="m26 2v6h-3c-.55 0-1-.45-1-1v-4c0-.55.45-1 1-1z" fill="#aab2bd"/><path d="m62 3v4c0 .55-.45 1-1 1h-3v-6h3c.55 0 1 .45 1 1z" fill="#aab2bd"/><path d="m62 35v5c0 4.65-1.69 8.29-4.1 10.91-1.71 1.89-3.81 3.25-5.9 4.09-2.5-1-5-2.75-6.88-5.25-1.87-2.5-3.12-5.75-3.12-9.75v-5l.63.21c3.29 1.1 6.92-.76 9.37-3.21 1.61 1.61 3.73 2.96 5.93 3.39 1.14.23 2.31.2 3.44-.18z" fill="#b4dd7f"/><path d="m30 6h24v4h-24z" fill="#ff826e"/><path d="m14 43-5.96 5.96c-.67.67-1.57 1.04-2.5 1.04-.98 0-1.86-.4-2.5-1.04s-1.04-1.52-1.04-2.5c0-.93.37-1.83 1.04-2.5l5.96-5.96z" fill="#969faa"/><path d="m17.57 39.43-3.57 3.57-5-5 3-3 .39-.18c1.31 1.94 3.09 3.54 5.18 4.61z" fill="#fcd770"/><path d="m17.57 39.43c-2.09-1.07-3.87-2.67-5.18-4.61-1.51-2.23-2.39-4.92-2.39-7.82 0-7.73 6.27-14 14-14 .67 0 1.33.05 1.98.14 6.79.96 12.02 6.8 12.02 13.86s-5.23 12.9-12.02 13.86c-.65.09-1.31.14-1.98.14-2.32 0-4.5-.57-6.43-1.57z" fill="#ffeaa7"/><circle cx="24" cy="27" fill="#69d6f4" r="10"/></g><g><path d="m25 20h-2v2h-2v6h4v2h-4v2h2v2h2v-2h2v-6h-4v-2h4v-2h-2z"/><path d="m24 16c-6.065 0-11 4.935-11 11s4.935 11 11 11 11-4.935 11-11-4.935-11-11-11zm0 20c-4.963 0-9-4.038-9-9s4.037-9 9-9 9 4.038 9 9-4.037 9-9 9z"/><path d="m47.707 43.293-1.414 1.414 3.707 3.707 8.707-8.707-1.414-1.414-7.293 7.293z"/><path d="m61 9c1.103 0 2-.897 2-2v-4c0-1.103-.897-2-2-2h-2-1-32-1-2c-1.103 0-2 .897-2 2v4c0 1.103.897 2 2 2h2v3.051c-.332-.022-.662-.051-1-.051-8.271 0-15 6.729-15 15 0 2.748.755 5.318 2.051 7.535l-8.723 8.722c-.856.857-1.328 1.995-1.328 3.207 0 2.501 2.034 4.536 4.535 4.536 1.211 0 2.351-.472 3.207-1.329l9.039-9.038c1.897.869 3.999 1.367 6.219 1.367.338 0 .668-.029 1-.051v21.465l2.845-2.844 2.155 3.233 2-3 2 3 2-3 2 3 2-3 2 3 2-3 2 3 2-3 2 3 2-3 2 3 2.155-3.233 2.845 2.844v-12.246c2.342-2.732 4-6.443 4-11.168v-6.387l-1.95.649c-.673.225-1.362.296-2.05.258v-25.52zm0-6v4h-2v-4zm-38 4v-4h2v4zm-15.672 41.257c-.479.479-1.116.743-1.793.743-1.397 0-2.535-1.138-2.535-2.536 0-.678.264-1.314.742-1.793l5.258-5.257 3.586 3.586zm6.672-6.671-3.586-3.586 1.779-1.779c1.049 1.34 2.318 2.496 3.756 3.415zm-3-14.586c0-7.168 5.832-13 13-13s13 5.832 13 13-5.832 13-13 13-13-5.832-13-13zm50 9.351v3.649c0 7.403-4.58 12.003-9 13.917-4.42-1.914-9-6.514-9-13.917v-3.649c3.285.748 6.644-.91 9-2.981 2.356 2.07 5.71 3.729 9 2.981zm-8.293-5.058-.707-.708-.707.708c-2.085 2.084-5.37 3.958-8.344 2.969l-1.949-.649v6.387c0 8.609 5.49 13.873 10.629 15.929l.371.148.371-.148c1.566-.626 3.163-1.555 4.629-2.781v5.438l-1.155-1.156-1.845 2.767-2-3-2 3-2-3-2 3-2-3-2 3-2-3-2 3-2-3-2 3-2-3-2 3-1.845-2.767-1.155 1.156v-16.888c6.839-1.394 12-7.454 12-14.698s-5.161-13.304-12-14.698v-9.302h30v31.104c-1.627-.576-3.143-1.661-4.293-2.811z"/><path d="m29 5v6h26v-6zm24 4h-22v-2h22z"/><path d="m41 14h14v2h-14z"/><path d="m41 18h6v2h-6z"/><path d="m41 22h6v2h-6z"/><path d="m49 18h6v2h-6z"/><path d="m49 22h6v2h-6z"/><path d="m41 26h14v2h-14z"/><path d="m29 43h4v2h-4z"/><path d="m35 43h4v2h-4z"/><path d="m29 47h4v2h-4z"/><path d="m35 47h4v2h-4z"/><path d="m29 51h10v2h-10z"/></g></g></svg>